# xmcd CD database file
#
# Track frame offsets:
#	150
#	12806
#	30836
#	45380
#
# Disc length: 775 seconds
#
# Revision: 0
# Processed by: cddbd v1.5.2PL0 Copyright (c) Steve Scherf et al.
# Submitted via: CDex 1.51
#
DISCID=1b030504
DTITLE=The Starry Field - If all your troubles were a sea
DYEAR=2007
DGENRE=Country
TTITLE0=If all your troubles were a sea
TTITLE1=cry
TTITLE2=thinking ahead
TTITLE3=best friends
EXTD=YEAR: 2007
EXTT0=
EXTT1=
EXTT2=
EXTT3=
PLAYORDER=
